<?xml version="1.0" encoding="UTF-8"?>
<svg width="32px" height="32px" viewBox="0 0 32 32" version="1.1" xmlns="http://www.w3.org/2000/svg" xmlns:xlink="http://www.w3.org/1999/xlink">
	<defs></defs>
	<g id="Page-1" stroke="none" stroke-width="1" fill="none" fill-rule="evenodd">
		<g id="clock" fill="#000000" fill-rule="nonzero">
			<path d="M16,0 C7.177658,0 0,7.177652 0,16 C0,24.82232 7.177658,32 16,32 C24.822342,32 32,24.82232 32,16 C32,7.177652 24.822342,0 16,0 Z M16,2.4 C23.525286,2.4 29.6,8.474708 29.6,16 C29.6,23.52528 23.525286,29.6 16,29.6 C8.4747144,29.6 2.4,23.52528 2.4,16 C2.4,8.474708 8.4747144,2.4 16,2.4 Z M15.9875,3.575 C15.6670444,3.57830074 15.36122,3.70963219 15.138161,3.93973514 C14.915102,4.16983809 14.7933392,4.47959664 14.8,4.8 L14.8,14.8 L7.2,14.8 C6.7672369,14.7938797 6.36470236,15.0212504 6.14653473,15.3950474 C5.92836711,15.7688445 5.92836711,16.2311555 6.14653473,16.6049526 C6.36470236,16.9787496 6.7672369,17.2061203 7.2,17.2 L16,17.2 C16.6627143,17.1999337 17.1999337,16.6627143 17.2,16 L17.2,4.8 C17.2067517,4.47526094 17.0815869,4.16165301 16.8530929,3.93080341 C16.624599,3.69995381 16.3122912,3.57157921 15.9875,3.575 Z" id="Shape"></path>
		</g>
	</g>
</svg>
