<svg width="31px" height="33px" viewBox="0 0 31 33" version="1.1" xmlns="http://www.w3.org/2000/svg" xmlns:xlink="http://www.w3.org/1999/xlink">
  <g id="Page-1" stroke="none" stroke-width="1" fill="none" fill-rule="evenodd">
    <g id="noun_677333_cc" fill="#000000" fill-rule="nonzero">
        <path d="M15.1482248,25.2659372 L11.5956101,30.6716545 C11.1251928,31.3816142 10.3908177,31.8744027 9.55552777,32.0406132 C9.35764354,32.0802775 9.15634157,32.1004077 8.95452152,32.1007138 C8.35925214,32.102671 7.77730114,31.924594 7.28505971,31.5898585 C6.58984605,31.119375 6.11969159,30.3827664 5.98568603,29.5540811 C5.85168048,28.7253958 6.06571179,27.8781485 6.5772079,27.2125296 L11.468731,20.8685748 C11.6906071,20.5834758 12.0477276,20.4384031 12.4055686,20.488004 C12.7634096,20.5376049 13.0676066,20.7743439 13.2035714,21.1090438 C13.3395362,21.4437436 13.2866127,21.8255554 13.0647365,22.1106543 L8.17321339,28.4546092 C7.99926614,28.682843 7.92717008,28.972723 7.97393668,29.2558505 C8.02070328,29.538978 8.1821902,29.7902752 8.42029374,29.950447 C8.64186428,30.0957913 8.91199944,30.1474171 9.17155155,30.0940207 C9.47892689,30.0322486 9.74916754,29.8508871 9.92280936,29.5898432 L13.4754241,24.1640924 C13.6589595,23.8375254 14.0093766,23.6406612 14.3837545,23.6537924 C14.7581324,23.6669237 15.0938952,23.8878557 15.2540992,24.2264793 C15.4143031,24.5651028 15.3721707,24.9648183 15.1448859,25.2625982 L15.1482248,25.2659372 Z M29.1082645,0.891794764 C27.772695,-0.0664763136 25.9563206,-0.14661048 24.0230838,0.671425805 C22.0933687,1.55311103 20.4395413,2.9426492 19.2384063,4.69148984 C17.498827,7.132243 16.6874686,9.94027776 17.0681059,12.204068 C17.1394595,12.6520981 17.0993224,13.1108076 16.9512436,13.5396374 C16.7853608,14.0597 17.0664326,14.61683 17.5832878,14.7924515 C18.100143,14.9680731 18.6624538,14.6975151 18.8477522,14.1840497 C19.1031133,13.4407813 19.1707859,12.6459151 19.0447487,11.8701756 C18.7542623,10.1439521 19.4554363,7.84009481 20.8711399,5.8601131 C21.8588632,4.41050822 23.2218149,3.25644242 24.8144087,2.52118949 C25.5489719,2.21066959 26.9346252,1.79998199 27.9563358,2.52118949 C28.9780464,3.24239699 29.041486,4.69482876 28.9880632,5.48949258 C28.8098833,7.2362456 28.1600996,8.90167707 27.1082492,10.3075594 C25.6925456,12.3109135 23.7392753,13.7099225 22.0130518,13.99707 C21.2477302,14.1232042 20.5246222,14.4337625 19.906191,14.9019183 C19.7400212,15.0291398 19.5816903,15.1662856 19.4320638,15.3126059 C19.0583389,15.7027286 19.061319,16.3189354 19.4387997,16.7054251 C19.8162804,17.0919149 20.4322455,17.1094253 20.8310728,16.7450041 C20.9226493,16.6556253 21.019663,16.5719928 21.1215592,16.4945848 C21.4746394,16.2229878 21.8881865,16.0408438 22.3269106,15.963696 C24.580684,15.5863976 26.988048,13.9035801 28.7276272,11.459488 C29.9942035,9.74991763 30.7710558,7.72756214 30.9747228,5.60969383 C31.1149576,3.51618873 30.4505118,1.83671015 29.1082645,0.87843907 L29.1082645,0.891794764 Z M14.6774366,13.1756947 C15.281472,11.7434561 15.0994738,10.100417 14.1966316,8.83509405 L8.23999186,0.521174243 C7.91550304,0.0790998947 7.29586138,-0.0198723414 6.84981002,0.299127509 C6.40375865,0.618127359 6.297135,1.23649835 6.61059714,1.68645858 L12.560559,10.0070562 C13.0649272,10.7132032 13.1612829,11.6323856 12.8143172,12.4277759 C12.5343721,13.0444122 12.615139,13.7649045 13.0246694,14.3042509 L24.0431173,28.5547769 C24.2538671,28.8303823 24.2979161,29.1988458 24.158073,29.5163638 C24.0182298,29.8338818 23.7166604,30.050126 23.3710609,30.0807008 C23.0254615,30.1112755 22.6906114,29.9513346 22.4971957,29.6632996 L12.5138141,14.6715325 C12.1330251,14.1108132 11.4752009,13.8043416 10.8009463,13.8735298 C9.93371397,13.9568184 9.08696099,13.5759699 8.57388422,12.8718527 L2.62058342,4.55125505 C2.29609459,4.1091807 1.67645294,4.01020846 1.23040157,4.32920831 C0.784350206,4.64820816 0.677726555,5.26657915 0.991188693,5.71653939 L6.95116735,14.037137 C7.86131667,15.2980773 9.36016817,15.9969516 10.9111308,15.8835618 L20.8310728,30.7918557 C21.2733662,31.4613365 21.9710059,31.9199924 22.7609707,32.0606467 C22.9393908,32.0936371 23.1204321,32.1104002 23.3018763,32.1107306 C24.4284557,32.1102362 25.4567342,31.4691992 25.9531668,30.457895 C26.4495994,29.4465909 26.3278004,28.2409998 25.6391228,27.3494255 L14.6774366,13.1756947 Z M10.0797388,11.8401253 C10.4550164,11.839288 10.7983455,11.6287535 10.9692628,11.2946558 C11.1401802,10.9605581 11.1100107,10.5589495 10.8910972,10.2541366 L5.45866849,2.48112241 C5.14149419,2.02748942 4.51663143,1.91686779 4.06299843,2.23404207 C3.60936544,2.55121636 3.49874379,3.17607913 3.81591807,3.62971213 L9.25836357,11.4027263 C9.44593333,11.6707731 9.75258215,11.8303302 10.0797388,11.8301085 L10.0797388,11.8401253 Z" id="Shape"></path>
    </g>
  </g>
</svg>
