<svg width="32px" height="31px" viewBox="0 0 32 31" version="1.1" xmlns="http://www.w3.org/2000/svg" xmlns:xlink="http://www.w3.org/1999/xlink">
	<g id="Page-1" stroke="none" stroke-width="1" fill="none" fill-rule="evenodd">
		<g id="noun_475314_cc" fill="#000000" fill-rule="nonzero">
			<path d="M31.945999,11.6258186 C31.8411092,11.3036822 31.4951504,10.7518549 30.3523842,10.6828765 L20.956386,10.1154046 C20.9197634,10.1086489 20.8514961,10.0581596 20.8362071,10.0332705 L17.3904862,1.26554469 C16.9712823,0.199934808 16.3398098,0.041 16.0006067,0.041 C15.6614035,0.041 15.029931,0.199934808 14.6110827,1.26554469 L11.1678507,10.0265148 C11.1497172,10.0585151 11.0810944,10.1086489 11.0526497,10.115049 L1.64918467,10.683232 C0.506418514,10.7522105 0.160104191,11.3040378 0.0552143291,11.6261741 C-0.0493199738,11.948666 -0.0930537128,12.598272 0.790510038,13.3257454 L8.05919968,19.3080232 C8.08373324,19.3343345 8.10968904,19.4150464 8.10720013,19.4442022 L5.74202263,28.5635757 C5.52406505,29.4041168 5.71748907,29.8905213 5.91873538,30.1504348 C6.33971706,30.6940843 7.13581334,30.7420848 7.99022126,30.197013 L15.9245171,25.1331439 C15.9366061,25.1274549 16.0638961,25.1295883 16.0695851,25.1295883 C16.0695851,25.1295883 16.0695851,25.1295883 16.0695851,25.1288771 L24.0109921,30.197013 C24.4198848,30.4579932 24.8042439,30.5899056 25.1534027,30.5899056 C25.5331395,30.5899056 25.8630982,30.4338152 26.082478,30.1504348 C26.2833687,29.8905213 26.4767927,29.4041168 26.2588352,28.5635757 L23.8954355,19.4516689 C23.8915243,19.4146908 23.9174801,19.3350456 23.9366803,19.3126454 L31.2103478,13.3253899 C32.0946226,12.5979165 32.0508889,11.9483104 31.945999,11.6258186 Z M30.3452731,12.2747135 L23.0723167,18.2612579 C22.6460016,18.6111278 22.436933,19.2529115 22.5759566,19.7862498 L24.9407785,28.9049122 C24.9706454,29.0197577 24.9852233,29.1114919 24.9912678,29.181537 C24.9283339,29.1552256 24.8458443,29.1139808 24.7437989,29.0485579 L16.8016808,23.980422 C16.5780343,23.8385541 16.2935872,23.75962 16.0006067,23.75962 C15.7076262,23.75962 15.4231791,23.8385541 15.1988215,23.9811332 L7.25777002,29.0485579 C7.15536907,29.1143363 7.07323498,29.1555812 7.0099455,29.1818925 C7.01599,29.1118474 7.03021236,29.0201132 7.0600793,28.9052677 L9.4252568,19.7866054 C9.56392475,19.252556 9.3552117,18.6111278 8.92960775,18.2616134 L1.65558473,12.2743579 C1.56456166,12.1989794 1.49878327,12.133201 1.45291618,12.0798672 C1.52118348,12.0642226 1.61327323,12.0496447 1.73167432,12.042178 L11.136206,11.4743505 C11.6851889,11.440928 12.2313273,11.0444798 12.4325736,10.531764 L15.87865,1.7640382 C15.9220282,1.6534594 15.9643397,1.57096975 16.0009622,1.51052474 C16.0375848,1.57096975 16.0798963,1.6534594 16.1232745,1.7640382 L19.5693509,10.531764 C19.7705972,11.0444798 20.3167356,11.4405724 20.8657185,11.4743505 L30.2691835,12.0425335 C30.3875846,12.0496447 30.4796743,12.0642226 30.5479416,12.0802228 C30.5024301,12.1339122 30.4370072,12.1996906 30.3452731,12.2747135 Z" id="Shape"></path>
		</g>
	</g>
</svg>
