<?xml version="1.0" encoding="UTF-8"?>
<svg width="32px" height="32px" viewBox="0 0 32 32" version="1.1" xmlns="http://www.w3.org/2000/svg" xmlns:xlink="http://www.w3.org/1999/xlink">
    <!-- Generator: Sketch 49 (51002) - http://www.bohemiancoding.com/sketch -->
    <title>Shape</title>
    <desc>Created with Sketch.</desc>
    <defs></defs>
    <g id="Page-1" stroke="none" stroke-width="1" fill="none" fill-rule="evenodd">
        <g id="noun_308049_cc" fill="#000000" fill-rule="nonzero">
            <g id="Group">
                <path d="M0,31.1693288 C0,28.5189372 2.04779636,25.7059768 4.5474598,24.8270535 C4.5474598,24.8270535 12.5714286,22.5237413 12.5714286,20.2666667 C12.5714286,19.1149016 10.4223113,16.9791348 10.4223113,16.9791348 C8.76679472,15.073235 7.54821268,11.4882426 7.9215642,8.99057804 C7.9215642,8.99057804 7.40407672,0 16,0 C24.5959233,0 24.1044116,9.1694218 24.1044116,9.1694218 C24.3758659,11.6738908 23.2111676,15.206281 21.5489703,17.1095085 C21.5489703,17.1095085 19.4285714,19.1452076 19.4285714,20.2666667 C19.4285714,22.5492368 27.4525402,24.8345604 27.4525402,24.8345604 C29.9640329,25.6827648 32,28.5227891 32,31.1693288 L32,32 L0,32 L0,31.1693288 Z" id="Shape"></path>
            </g>
        </g>
    </g>
</svg>