
<svg width="32px" height="32px" viewBox="0 0 32 32" version="1.1" xmlns="http://www.w3.org/2000/svg" xmlns:xlink="http://www.w3.org/1999/xlink">
	<g id="Page-1" stroke="none" stroke-width="1" fill="none" fill-rule="evenodd">
		<g id="noun_1200188_cc" fill="#000000" fill-rule="nonzero">
			<path d="M28.32,9.64 L21.44,9.64 C21.92,8.68 22.24,7.72 22.24,6.44 C22.24,2.92 19.36,0.2 16,0.2 C12.64,0.2 9.76,2.92 9.76,6.44 C9.76,7.56 10.08,8.68 10.56,9.64 L3.68,9.64 L0,31.56 L32,31.56 L28.32,9.64 Z M12.8,6.44 C12.8,4.68 14.24,3.24 16,3.24 C17.76,3.24 19.2,4.68 19.2,6.44 C19.2,8.2 17.76,9.64 16,9.64 C14.24,9.64 12.8,8.2 12.8,6.44 Z M3.68,28.52 L6.4,12.68 L25.6,12.68 L28.16,28.36 L3.68,28.36 L3.68,28.52 Z" id="Shape"></path>
		</g>
	</g>
</svg>
